<?xml version="1.0" encoding="UTF-8"?>
<svg version="1.1" xmlns="http://www.w3.org/2000/svg" width="500" height="500">
<path d="M0 0 C165 0 330 0 500 0 C500 165 500 330 500 500 C335 500 170 500 0 500 C0 335 0 170 0 0 Z " fill="#1F1D1D" transform="translate(0,0)"/>
<path d="M0 0 C1.18613892 0.00785522 1.18613892 0.00785522 2.39624023 0.01586914 C3.67724609 0.02070313 3.67724609 0.02070313 4.98413086 0.02563477 C6.33087891 0.03820312 6.33087891 0.03820312 7.70483398 0.05102539 C8.6065332 0.05553711 9.50823242 0.06004883 10.43725586 0.06469727 C12.67234712 0.07652315 14.90730835 0.09300319 17.14233398 0.11352539 C25.34033082 18.47763925 33.49518907 36.85932103 41.51733398 55.30102539 C41.86691162 56.10462494 42.21648926 56.90822449 42.57666016 57.73617554 C42.92897705 58.54607941 43.28129395 59.35598328 43.64428711 60.19042969 C48.76728982 71.96625403 53.91465958 83.73113825 59.07983398 95.48852539 C59.44735779 96.32527802 59.81488159 97.16203064 60.19354248 98.0241394 C64.10448298 106.92810093 68.01801483 115.83092253 71.93226624 124.73342896 C73.60089426 128.52897677 75.2688969 132.32479924 76.9367981 136.1206665 C78.11786777 138.80785938 79.29988463 141.49463427 80.48193359 144.18139648 C81.20211616 145.82020954 81.92225214 147.45904307 82.64233398 149.09790039 C82.9685524 149.83865814 83.29477081 150.57941589 83.63087463 151.34262085 C85.19725711 154.91032566 86.72370374 158.48360525 88.14233398 162.11352539 C102.40400022 162.60938434 115.40697103 162.15251019 129.14233398 158.11352539 C130.09108398 157.83637695 131.03983398 157.55922852 132.01733398 157.27368164 C146.78897469 152.13674889 158.89155033 140.60177901 165.86889648 126.82055664 C166.28913086 125.92723633 166.70936523 125.03391602 167.14233398 124.11352539 C167.52131836 123.31301758 167.90030273 122.51250977 168.29077148 121.68774414 C176.66172901 102.45971765 176.38665892 80.4700626 169.01733398 60.98852539 C161.75521849 44.88180356 149.5953118 31.90709353 132.97827148 25.44946289 C123.93763842 22.10191383 115.8649436 20.03542161 106.10546875 19.90820312 C105.44120377 19.89830353 104.77693878 19.88840393 104.09254456 19.87820435 C101.92297788 19.84691795 99.7533894 19.82196375 97.58374023 19.79711914 C96.0691627 19.77652113 94.55459054 19.75552396 93.0400238 19.73414612 C89.07321559 19.67921923 85.10635804 19.62968166 81.13946533 19.58129883 C77.08373681 19.53086785 73.02807901 19.47529505 68.97241211 19.42016602 C61.02911272 19.3129444 53.08575376 19.21142108 45.14233398 19.11352539 C43.80601678 16.13568821 42.47378294 13.15604207 41.14233398 10.17602539 C40.76077148 9.32588867 40.37920898 8.47575195 39.98608398 7.59985352 C39.62514648 6.7909668 39.26420898 5.98208008 38.89233398 5.14868164 C38.38959961 4.02538452 38.38959961 4.02538452 37.87670898 2.87939453 C37.14233398 1.11352539 37.14233398 1.11352539 37.14233398 0.11352539 C46.29762788 0.04325246 55.45282548 -0.00967041 64.60833263 -0.04191113 C68.86203389 -0.05740417 73.11554739 -0.0783329 77.36914062 -0.11279297 C125.92595739 -0.49508308 125.92595739 -0.49508308 141.26733398 6.86352539 C142.04536377 7.21568115 142.82339355 7.56783691 143.625 7.93066406 C165.91377994 18.26051776 182.30890781 35.9483132 190.8581543 59.04760742 C197.44981428 78.56438872 197.17238203 100.5368069 191.14233398 120.11352539 C190.85358398 121.10223633 190.56483398 122.09094727 190.26733398 123.10961914 C186.22729627 135.53634227 179.24661345 145.87584989 170.14233398 155.11352539 C169.60350586 155.72454102 169.06467773 156.33555664 168.50952148 156.96508789 C154.41957363 172.47111091 131.4810603 180.22808946 111.14233398 182.11352539 C108.25531561 182.23244758 105.37514413 182.23116549 102.48608398 182.21118164 C101.69834595 182.20976669 100.91060791 182.20835175 100.09899902 182.20689392 C97.61340334 182.20135151 95.12790187 182.18881024 92.64233398 182.17602539 C90.94441863 182.17100293 89.24650185 182.16644134 87.54858398 182.16235352 C83.4131317 182.15140103 79.27774875 182.13417705 75.14233398 182.11352539 C66.34401965 162.94030517 58.03680235 143.56820177 49.79754639 124.14944458 C41.25387153 104.01640534 32.59263815 83.93685763 23.85571289 63.88696289 C19.69907656 54.34475317 15.55230148 44.7984904 11.48217773 35.21899414 C10.97056847 34.02467522 10.97056847 34.02467522 10.44862366 32.80622864 C8.14233398 27.34678692 8.14233398 27.34678692 8.14233398 25.11352539 C7.48233398 25.11352539 6.82233398 25.11352539 6.14233398 25.11352539 C5.97462494 25.64851151 5.80691589 26.18349762 5.63412476 26.73469543 C3.72732668 32.65159969 1.43567971 38.31378002 -1.06860352 44.00024414 C-1.47305191 44.9272261 -1.87750031 45.85420807 -2.29420471 46.8092804 C-3.60348961 49.8080882 -4.91807791 52.8045391 -6.23266602 55.80102539 C-7.14397023 57.88613028 -8.05485585 59.97141817 -8.96533203 62.05688477 C-10.77018468 66.19021158 -12.57667735 70.32281477 -14.38452148 74.45483398 C-17.53855276 81.66699299 -20.66958308 88.88900311 -23.79516602 96.11352539 C-24.81465114 98.46771203 -25.8341817 100.821879 -26.85375977 103.17602539 C-27.34602051 104.31297852 -27.83828125 105.44993164 -28.34545898 106.62133789 C-30.46911092 111.52555443 -32.5941298 116.42917815 -34.71923828 121.33276367 C-35.80194405 123.83105542 -36.88445848 126.32942993 -37.96679688 128.82788086 C-40.47573518 134.6191742 -42.9858063 140.40996854 -45.49987793 146.19903564 C-46.67142278 148.89690253 -47.84232548 151.59504791 -49.01318359 154.29321289 C-49.56478563 155.56385903 -50.11669281 156.83437276 -50.66894531 158.10473633 C-54.13562498 166.07949526 -57.53140273 174.07913209 -60.85766602 182.11352539 C-67.45766602 182.11352539 -74.05766602 182.11352539 -80.85766602 182.11352539 C-80.04975325 178.07396157 -79.17028879 175.20469316 -77.54907227 171.50415039 C-77.05898682 170.37904053 -76.56890137 169.25393066 -76.06396484 168.09472656 C-75.51613473 166.85094754 -74.96819798 165.60721549 -74.42016602 164.36352539 C-73.8412272 163.03989144 -73.26270728 161.71607422 -72.68457031 160.39208984 C-71.08876693 156.74140091 -69.48646336 153.09359745 -67.8828125 149.4463501 C-66.48757615 146.27134841 -65.09563937 143.09490442 -63.70362854 139.91848755 C-59.92836691 131.30408073 -56.14602392 122.69279799 -52.36073303 114.08279419 C-48.56252825 105.4432265 -44.76868992 96.80174479 -40.97543335 88.16000366 C-39.11337643 83.91789769 -37.25118149 79.67585231 -35.38891602 75.43383789 C-34.83448067 74.17089149 -34.83448067 74.17089149 -34.2688446 72.88243103 C-31.9392369 67.57615324 -29.60872227 62.27027462 -27.27760315 56.96466064 C-25.69185433 53.35543582 -24.10637949 49.74609069 -22.52096558 46.13671875 C-21.75098923 44.38390604 -20.98091017 42.63113844 -20.21072388 40.87841797 C-15.29829616 29.69845588 -10.39864327 18.51340523 -5.58422852 7.29077148 C-5.22973633 6.46915527 -4.87524414 5.64753906 -4.51000977 4.80102539 C-4.2108667 4.10364258 -3.91172363 3.40625977 -3.60351562 2.68774414 C-2.39956597 0.14664189 -2.39956597 0.14664189 0 0 Z " fill="#C50205" transform="translate(192.857666015625,158.886474609375)"/>
<path d="M0 0 C7.69422421 -0.09350555 15.38838806 -0.16416706 23.08305454 -0.20724869 C26.65770891 -0.22794681 30.23196896 -0.25592917 33.80639648 -0.30175781 C37.26888219 -0.34586321 40.73099356 -0.3692699 44.19373894 -0.37950897 C46.12933091 -0.39027958 48.06477646 -0.4213964 50.00013733 -0.45318604 C66.68625309 -0.45731778 82.89855843 4.54745292 95.27734375 16.1640625 C103 24.39455782 103 24.39455782 103 28 C97.57784454 26.21756534 97.57784454 26.21756534 95.10513306 25.28656006 C78.03369493 18.90692052 60.97987344 19.09103708 43.03582764 19.12445068 C39.07257566 19.12537776 35.10960323 19.09230759 31.14648438 19.0625 C23.43088276 19.00927792 15.71580775 18.99237697 8 19 C1.48063781 6.51480638 1.48063781 6.51480638 0 0 Z " fill="#C60205" transform="translate(244,190)"/>
<path d="M0 0 C3.68026141 1.84013071 4.63247387 6.47760886 6.1875 10.125 C6.56841797 10.96804688 6.94933594 11.81109375 7.34179688 12.6796875 C7.69693359 13.50984375 8.05207031 14.34 8.41796875 15.1953125 C8.74563232 15.94828613 9.0732959 16.70125977 9.41088867 17.47705078 C10.98837781 24.2328621 7.83497714 30.36846731 5.18359375 36.43359375 C4.80767593 37.31153091 4.43175812 38.18946808 4.04444885 39.0940094 C2.84998995 41.87862999 1.64395425 44.65805853 0.4375 47.4375 C-0.37772454 49.33235059 -1.19218593 51.22752971 -2.00585938 53.12304688 C-3.99369513 57.75322496 -5.9971283 62.37619122 -8 67 C-14.6 67 -21.2 67 -28 67 C-27.12506032 62.62530161 -25.85780775 59.06616808 -24.04296875 55.05859375 C-23.74357391 54.38602036 -23.44417908 53.71344696 -23.13571167 53.02049255 C-22.49173093 51.57493402 -21.84552051 50.13036711 -21.19729614 48.68670654 C-19.48841239 44.88036151 -17.7958052 41.06678503 -16.1015625 37.25390625 C-15.75813309 36.48212036 -15.41470367 35.71033447 -15.06086731 34.91516113 C-11.66110971 27.26366693 -8.34923867 19.57559535 -5.0625 11.875 C-4.54905029 10.67286865 -4.03560059 9.4707373 -3.5065918 8.23217773 C-2.33617834 5.48877403 -1.16714799 2.74479418 0 0 Z " fill="#C40205" transform="translate(175,274)"/>
</svg>
